<mxfile host="app.diagrams.net" modified="2022-09-03T20:59:55.625Z" agent="5.0 (Macintosh; Intel Mac OS X 10_15_7) AppleWebKit/537.36 (KHTML, like Gecko) Chrome/105.0.0.0 Safari/537.36" etag="5VmSu35_j187ezFVZmQE" version="20.2.7" type="github">
  <diagram id="fkI27BCx65XfH14AguSb" name="Page-1">
    <mxGraphModel dx="1231" dy="716" grid="1" gridSize="10" guides="1" tooltips="1" connect="1" arrows="1" fold="1" page="1" pageScale="1" pageWidth="850" pageHeight="1100" math="0" shadow="0">
      <root>
        <mxCell id="0" />
        <mxCell id="1" parent="0" />
        <mxCell id="9keD4x1VoJouxZTJr_dY-1" value="" style="rhombus;whiteSpace=wrap;html=1;" parent="1" vertex="1">
          <mxGeometry x="512.5" y="395" width="155" height="80" as="geometry" />
        </mxCell>
        <mxCell id="N9uXJ3iaXQ5TV3AETxnt-2" value="" style="endArrow=classic;html=1;rounded=0;" parent="1" edge="1">
          <mxGeometry width="50" height="50" relative="1" as="geometry">
            <mxPoint x="587" y="475" as="sourcePoint" />
            <mxPoint x="587" y="520" as="targetPoint" />
          </mxGeometry>
        </mxCell>
        <mxCell id="N9uXJ3iaXQ5TV3AETxnt-3" value="" style="rounded=0;whiteSpace=wrap;html=1;" parent="1" vertex="1">
          <mxGeometry x="353" y="70" width="145" height="100" as="geometry" />
        </mxCell>
        <mxCell id="N9uXJ3iaXQ5TV3AETxnt-10" style="edgeStyle=orthogonalEdgeStyle;rounded=0;orthogonalLoop=1;jettySize=auto;html=1;exitX=1;exitY=0.5;exitDx=0;exitDy=0;" parent="1" source="N9uXJ3iaXQ5TV3AETxnt-5" edge="1">
          <mxGeometry relative="1" as="geometry">
            <mxPoint x="590" y="270" as="targetPoint" />
          </mxGeometry>
        </mxCell>
        <mxCell id="N9uXJ3iaXQ5TV3AETxnt-5" value="" style="rounded=1;whiteSpace=wrap;html=1;" parent="1" vertex="1">
          <mxGeometry x="380" y="130" width="90" height="25" as="geometry" />
        </mxCell>
        <mxCell id="N9uXJ3iaXQ5TV3AETxnt-4" value="" style="rounded=0;whiteSpace=wrap;html=1;" parent="1" vertex="1">
          <mxGeometry x="380.5" y="90" width="90" height="25" as="geometry" />
        </mxCell>
        <mxCell id="N9uXJ3iaXQ5TV3AETxnt-11" style="edgeStyle=orthogonalEdgeStyle;rounded=0;orthogonalLoop=1;jettySize=auto;html=1;" parent="1" edge="1">
          <mxGeometry relative="1" as="geometry">
            <mxPoint x="250" y="210" as="targetPoint" />
            <mxPoint x="380" y="103" as="sourcePoint" />
          </mxGeometry>
        </mxCell>
        <mxCell id="N9uXJ3iaXQ5TV3AETxnt-1" value="INPUT" style="text;html=1;strokeColor=none;fillColor=none;align=center;verticalAlign=middle;whiteSpace=wrap;rounded=0;" parent="1" vertex="1">
          <mxGeometry x="400" y="92.5" width="50" height="20" as="geometry" />
        </mxCell>
        <mxCell id="N9uXJ3iaXQ5TV3AETxnt-8" value="BUTTON" style="text;html=1;strokeColor=none;fillColor=none;align=center;verticalAlign=middle;whiteSpace=wrap;rounded=0;" parent="1" vertex="1">
          <mxGeometry x="395" y="132.5" width="60" height="20" as="geometry" />
        </mxCell>
        <mxCell id="N1jkn0-qQf63eD2HtOuL-1" value="addListAfterClick&lt;br&gt;" style="text;html=1;strokeColor=none;fillColor=none;align=center;verticalAlign=middle;whiteSpace=wrap;rounded=0;" vertex="1" parent="1">
          <mxGeometry x="540" y="420" width="100" height="30" as="geometry" />
        </mxCell>
        <mxCell id="N1jkn0-qQf63eD2HtOuL-3" value="" style="rhombus;whiteSpace=wrap;html=1;" vertex="1" parent="1">
          <mxGeometry x="510" y="520" width="155" height="80" as="geometry" />
        </mxCell>
        <mxCell id="N1jkn0-qQf63eD2HtOuL-4" value="createListElement" style="text;html=1;strokeColor=none;fillColor=none;align=center;verticalAlign=middle;whiteSpace=wrap;rounded=0;" vertex="1" parent="1">
          <mxGeometry x="540" y="545" width="100" height="30" as="geometry" />
        </mxCell>
        <mxCell id="N1jkn0-qQf63eD2HtOuL-7" style="edgeStyle=orthogonalEdgeStyle;rounded=0;orthogonalLoop=1;jettySize=auto;html=1;exitX=0.5;exitY=1;exitDx=0;exitDy=0;entryX=0.5;entryY=0;entryDx=0;entryDy=0;" edge="1" parent="1" source="N1jkn0-qQf63eD2HtOuL-6" target="9keD4x1VoJouxZTJr_dY-1">
          <mxGeometry relative="1" as="geometry" />
        </mxCell>
        <mxCell id="N1jkn0-qQf63eD2HtOuL-6" value="" style="rhombus;whiteSpace=wrap;html=1;" vertex="1" parent="1">
          <mxGeometry x="512.5" y="270" width="155" height="80" as="geometry" />
        </mxCell>
        <mxCell id="N1jkn0-qQf63eD2HtOuL-5" value="addEventListener" style="text;html=1;strokeColor=none;fillColor=none;align=center;verticalAlign=middle;whiteSpace=wrap;rounded=0;" vertex="1" parent="1">
          <mxGeometry x="540" y="295" width="100" height="30" as="geometry" />
        </mxCell>
        <mxCell id="N1jkn0-qQf63eD2HtOuL-8" value="" style="rhombus;whiteSpace=wrap;html=1;" vertex="1" parent="1">
          <mxGeometry x="172.5" y="335" width="155" height="80" as="geometry" />
        </mxCell>
        <mxCell id="N1jkn0-qQf63eD2HtOuL-9" value="" style="endArrow=classic;html=1;rounded=0;" edge="1" parent="1">
          <mxGeometry width="50" height="50" relative="1" as="geometry">
            <mxPoint x="247" y="415" as="sourcePoint" />
            <mxPoint x="247" y="460" as="targetPoint" />
          </mxGeometry>
        </mxCell>
        <mxCell id="N1jkn0-qQf63eD2HtOuL-10" value="addListAfterKeypress" style="text;html=1;strokeColor=none;fillColor=none;align=center;verticalAlign=middle;whiteSpace=wrap;rounded=0;" vertex="1" parent="1">
          <mxGeometry x="200" y="360" width="100" height="30" as="geometry" />
        </mxCell>
        <mxCell id="N1jkn0-qQf63eD2HtOuL-11" value="" style="rhombus;whiteSpace=wrap;html=1;" vertex="1" parent="1">
          <mxGeometry x="170" y="460" width="155" height="80" as="geometry" />
        </mxCell>
        <mxCell id="N1jkn0-qQf63eD2HtOuL-12" value="createListElement" style="text;html=1;strokeColor=none;fillColor=none;align=center;verticalAlign=middle;whiteSpace=wrap;rounded=0;" vertex="1" parent="1">
          <mxGeometry x="200" y="485" width="100" height="30" as="geometry" />
        </mxCell>
        <mxCell id="N1jkn0-qQf63eD2HtOuL-13" style="edgeStyle=orthogonalEdgeStyle;rounded=0;orthogonalLoop=1;jettySize=auto;html=1;exitX=0.5;exitY=1;exitDx=0;exitDy=0;entryX=0.5;entryY=0;entryDx=0;entryDy=0;" edge="1" parent="1" source="N1jkn0-qQf63eD2HtOuL-14" target="N1jkn0-qQf63eD2HtOuL-8">
          <mxGeometry relative="1" as="geometry" />
        </mxCell>
        <mxCell id="N1jkn0-qQf63eD2HtOuL-14" value="" style="rhombus;whiteSpace=wrap;html=1;" vertex="1" parent="1">
          <mxGeometry x="172.5" y="210" width="155" height="80" as="geometry" />
        </mxCell>
        <mxCell id="N1jkn0-qQf63eD2HtOuL-15" value="addEventListener" style="text;html=1;strokeColor=none;fillColor=none;align=center;verticalAlign=middle;whiteSpace=wrap;rounded=0;" vertex="1" parent="1">
          <mxGeometry x="200" y="235" width="100" height="30" as="geometry" />
        </mxCell>
      </root>
    </mxGraphModel>
  </diagram>
</mxfile>
